/* XPM */
static char *image[] = {
"60 60 390 2",
"   c None",
"00 c #1384b5",
"10 c #137fb1",
"20 c #1380b1",
"30 c #137bac",
"40 c #1377a8",
"50 c #1370a2",
"60 c #1370a1",
"70 c #146c9e",
"80 c #14689a",
"90 c #146597",
":0 c #146193",
";0 c #0e5d91",
"A0 c #08598e",
"B0 c #0b5b8f",
"C0 c #136193",
"D0 c #146194",
"E0 c #135d8f",
"F0 c #125c8f",
"G0 c #9bbad0",
"H0 c #f4f8fa",
"I0 c #c0d4e2",
"J0 c #30719d",
"K0 c #0d598c",
"L0 c #145e90",
"M0 c #085186",
"N0 c #b0c8d9",
"O0 c #f0f4f8",
"P0 c #0d5589",
"Q0 c #155a8d",
"R0 c #145a8d",
"S0 c #3d739d",
"T0 c #cbd9e4",
"U0 c #0b4f83",
"V0 c #0e5185",
"W0 c #0f5185",
"X0 c #054a80",
"Y0 c #759bb9",
"Z0 c #b6cad9",
"a0 c #145588",
"b0 c #07477d",
"c0 c #8eacc4",
"d0 c #104e82",
"e0 c #08497e",
"f0 c #658eaf",
"g0 c #e7eef3",
"h0 c #ccdae5",
"i0 c #45769e",
"j0 c #07487d",
"k0 c #225c8c",
"l0 c #0b4b7f",
"m0 c #145284",
"n0 c #144e80",
"o0 c #98b2c8",
"p0 c #e5ecf1",
"q0 c #0d497d",
"r0 c #07457a",
"s0 c #8eaac3",
"t0 c #6188aa",
"u0 c #427099",
"v0 c #144e81",
"w0 c #094378",
"x0 c #245887",
"y0 c #0f477b",
"z0 c #e5ebf0",
"01 c #d8e1ea",
"11 c #0f487b",
"21 c #144b7e",
"31 c #13487a",
"41 c #063d73",
"51 c #114679",
"61 c #cdd8e3",
"71 c #255584",
"81 c #0b4075",
"91 c #14487b",
":1 c #104175",
";1 c #0b3e73",
"A1 c #3e668f",
"B1 c #6888a9",
"C1 c #063a70",
"D1 c #134477",
"E1 c #144578",
"F1 c #124172",
"G1 c #103e72",
"H1 c #e2e8ee",
"I1 c #08386d",
"J1 c #244f7e",
"K1 c #ffffff",
"L1 c #b8c5d5",
"M1 c #184577",
"N1 c #144274",
"O1 c #144275",
"P1 c #124173",
"Q1 c #143f72",
"R1 c #053269",
"S1 c #ced7e2",
"T1 c #0d3a6e",
"U1 c #07346a",
"V1 c #fefefe",
"W1 c #a9bacc",
"X1 c #133e71",
"Y1 c #0f3b6f",
"Z1 c #143b6e",
"a1 c #e4e9ee",
"b1 c #f8f8fb",
"c1 c #063065",
"d1 c #073066",
"e1 c #eaeef3",
"f1 c #fdfdfe",
"g1 c #f0f3f6",
"h1 c #113869",
"i1 c #14386b",
"j1 c #12376a",
"k1 c #46628a",
"l1 c #ced4e0",
"m1 c #072d63",
"n1 c #0c3266",
"o1 c #45628a",
"p1 c #fcfdfd",
"q1 c #eff1f4",
"r1 c #91a4b9",
"s1 c #133669",
"t1 c #143669",
"u1 c #bbc5d4",
"v1 c #f7f9fb",
"w1 c #35537e",
"x1 c #062a60",
"y1 c #00245c",
"z1 c #435d86",
"02 c #eaeef2",
"12 c #fbfcfd",
"22 c #f6f8f9",
"32 c #d4dce3",
"42 c #143466",
"52 c #082a5f",
"62 c #f3f4f7",
"72 c #f8fafb",
"82 c #f9fafc",
"92 c #f9fafb",
":2 c #143264",
";2 c #123163",
"A2 c #07275c",
"B2 c #3d5680",
"C2 c #8898b1",
"D2 c #a8b3c5",
"E2 c #f2f4f6",
"F2 c #a7b3c5",
"G2 c #09295e",
"H2 c #06265c",
"I2 c #697c9c",
"J2 c #f6f8fa",
"K2 c #f7f9fa",
"L2 c #e1e6ec",
"M2 c #102b5f",
"N2 c #c5cdd9",
"O2 c #f4f6f7",
"P2 c #122e61",
"Q2 c #0c285c",
"R2 c #08255a",
"S2 c #142f61",
"T2 c #142f62",
"U2 c #072359",
"V2 c #7888a4",
"W2 c #f6f7f9",
"X2 c #f5f7f8",
"Y2 c #f5f6f8",
"Z2 c #d8dee5",
"a2 c #132d5e",
"b2 c #8391ab",
"c2 c #99a4b9",
"d2 c #132c5e",
"e2 c #092357",
"f2 c #2f4672",
"g2 c #d1d7e0",
"h2 c #f1f3f6",
"i2 c #f2f3f6",
"j2 c #ced6df",
"k2 c #0e2456",
"l2 c #b9c0cf",
"m2 c #bdc3d1",
"n2 c #8f9ab0",
"o2 c #949eb4",
"p2 c #ecf0f3",
"q2 c #eef0f4",
"r2 c #edeff3",
"s2 c #8591aa",
"t2 c #12285a",
"u2 c #122859",
"v2 c #041b4f",
"w2 c #6a7897",
"x2 c #eceff2",
"y2 c #edf0f3",
"z2 c #eceff3",
"03 c #c5cdd8",
"13 c #6e7b99",
"23 c #e8ecf0",
"33 c #e9ecf0",
"43 c #44557a",
"53 c #061b4e",
"63 c #112556",
"73 c #0f2455",
"83 c #102455",
"93 c #0a1f51",
":3 c #182b5a",
";3 c #dde2e7",
"A3 c #e7ebef",
"B3 c #e7ebf0",
"C3 c #081e50",
"D3 c #122657",
"E3 c #04194d",
"F3 c #75819e",
"G3 c #eaedf1",
"H3 c #bdc6d2",
"I3 c #05184b",
"J3 c #e3e7ec",
"K3 c #dfe4ea",
"L3 c #001548",
"M3 c #0f2253",
"N3 c #959eb4",
"O3 c #cacfda",
"P3 c #c6cbd6",
"Q3 c #2c3d68",
"R3 c #0d2051",
"S3 c #061a4c",
"T3 c #b5bcca",
"U3 c #e5e9ed",
"V3 c #e4e8ed",
"W3 c #e2e6eb",
"X3 c #071b4d",
"Y3 c #112454",
"Z3 c #071a4c",
"a3 c #283a65",
"b3 c #96a0b4",
"c3 c #dde1e7",
"d3 c #001446",
"e3 c #0c1f4f",
"f3 c #8e96ad",
"g3 c #dde1e8",
"h3 c #041748",
"i3 c #06194a",
"j3 c #d1d6df",
"k3 c #e0e4e9",
"l3 c #e0e4ea",
"m3 c #dfe3e9",
"n3 c #dfe3e8",
"o3 c #626f8f",
"p3 c #102252",
"q3 c #102251",
"r3 c #031646",
"s3 c #d7dbe2",
"t3 c #6a7693",
"u3 c #7b869f",
"v3 c #d9dde4",
"w3 c #c5c9d5",
"x3 c #0a1c4b",
"y3 c #0e204f",
"z3 c #d8dde4",
"04 c #dadde4",
"14 c #dbdee5",
"24 c #d8dde3",
"34 c #c7ccd7",
"44 c #091b4b",
"54 c #0f214f",
"64 c #0b1c4a",
"74 c #001141",
"84 c #011343",
"94 c #d0d5dd",
":4 c #d1d7de",
";4 c #303e67",
"A4 c #091a49",
"B4 c #c8ced7",
"C4 c #d2d6de",
"D4 c #d5d9e0",
"E4 c #d4d8e0",
"F4 c #d1d6de",
"G4 c #001242",
"H4 c #0e1f4d",
"I4 c #0b1f4b",
"J4 c #37466a",
"K4 c #ccd1d9",
"L4 c #071846",
"M4 c #546081",
"N4 c #cad0d9",
"O4 c #ced3dc",
"P4 c #ced3db",
"Q4 c #cdd2db",
"R4 c #a9b0c0",
"S4 c #0c1d4a",
"T4 c #8c94a8",
"U4 c #ccd1da",
"V4 c #cbd0d9",
"W4 c #3f4d70",
"X4 c #0d1e4b",
"Y4 c #0c1f4b",
"Z4 c #4e5b7b",
"a4 c #c7ccd6",
"b4 c #848da3",
"c4 c #c3c9d3",
"d4 c #c7cdd6",
"e4 c #c5cbd5",
"f4 c #bac0cc",
"g4 c #081946",
"h4 c #69748f",
"i4 c #c3c9d4",
"j4 c #c4cad4",
"k4 c #afb8c5",
"l4 c #091a47",
"m4 c #0c1d49",
"n4 c #2c3b60",
"o4 c #021440",
"p4 c #3d4b6d",
"q4 c #929bac",
"r4 c #091b46",
"s4 c #9099ac",
"t4 c #8a93a8",
"u4 c #0a1c46",
"v4 c #071b44",
"w4 c #000f3b",
"x4 c #000e3a",
"y4 c #11224a",
"z4 c #01133e",
"05 c #485574",
"15 c #091b45",
"25 c #081b45",
"35 c #01123d",
"45 c #828ba0",
"55 c #3a4868",
"65 c #858ea2",
"75 c #071943",
"85 c #233358",
"95 c #000f3a",
":5 c #081a43",
";5 c #5a6781",
"A5 c #17264d",
"B5 c #071b42",
"C5 c #384566",
"D5 c #727d93",
"E5 c #03163e",
"F5 c #000a34",
"G5 c #041840",
"H5 c #071a42",
"I5 c #112147",
"J5 c #071941",
"K5 c #000d36",
"L5 c #344464",
"M5 c #6d778e",
"N5 c #667089",
"O5 c #000d37",
"P5 c #071a41",
"Q5 c #000933",
"R5 c #0b1b41",
"S5 c #071940",
"T5 c #253455",
"U5 c #69748b",
"V5 c #010e36",
"W5 c #001239",
"X5 c #04173d",
"Y5 c #03163d",
"Z5 c #000b33",
"a5 c #4f5c77",
"b5 c #06193f",
"c5 c #515e77",
"d5 c #132145",
"e5 c #06193e",
"f5 c #1b2a49",
"g5 c #505c76",
"h5 c #021539",
"i5 c #06193c",
"j5 c #000c30",
"k5 c #47536e",
"l5 c #040f33",
"m5 c #06183b",
"n5 c #06183a",
"o5 c #001234",
"p5 c #030f32",
"q5 c #182746",
"r5 c #3d4a65",
"s5 c #303e5a",
"t5 c #001032",
"u5 c #000e31",
"v5 c #061839",
"w5 c #061838",
"x5 c #061837",
"y5 c #081835",
"z5 c #091934",
"06 c #0a1933",
"16 c #0d1a31",
"26 c #0f1b31",
"36 c #111c30",
"46 c #131d2f",
"                                                                                                                        ",
"                                                                                                                        ",
"                                                                                                                        ",
"                                                                                                                        ",
"                                                46464646464646464646464646                                              ",
"                                          36363636363636363636363636363636363636                                        ",
"                                      2626262626262626262626262626262626262626262626                                    ",
"                                  161616161616161616161616161616161616161616161616161616                                ",
"                              06060606060606060606060606060606060606060606060606060606060606                            ",
"                            z5z5z5z5z5z5z5z5z5z5z5z5z5z5z5z5z5z5z5z5z5z5z5z5z5z5z5z5z5z5z5z5z5                          ",
"                          y5y5y5y5y5y5y5y5y5y5y5y5y5y5y5y5y5y5y5y5y5y5y5y5y5y5y5y5y5y5y5y5y5y5y5                        ",
"                        x5x5x5x5x5x5x5x5x5x5x5x5x5x5x5x5x5x5x5x5x5x5x5x5x5x5x5x5x5x5x5x5x5x5x5x5x5                      ",
"                      w5w5w5w5w5w5w5w5w5w5w5w5w5w5w5w5w5w5w5w5w5w5w5w5w5w5w5w5w5w5w5w5w5w5w5w5w5w5w5                    ",
"                    v5v5v5v5v5v5v5v5v5v5v5v5v5v5v5v5v5v5v5v5v5v5v5v5v5v5u5t5s5r5q5p5o5v5v5v5v5v5v5v5v5                  ",
"                  n5m5m5m5m5m5m5m5m5m5m5m5m5m5m5m5m5m5m5m5m5m5m5m5m5l5                k5j5m5m5m5m5m5m5m5                ",
"                i5i5i5i5i5i5i5i5i5i5i5i5i5i5i5i5i5i5i5i5i5i5i5i5h5g5                      f5i5i5i5i5i5i5i5              ",
"                e5e5e5e5e5e5e5e5e5e5e5e5e5e5e5e5e5e5e5e5e5e5e5d5                            c5e5e5e5e5e5e5              ",
"              b5b5b5b5b5b5b5b5b5b5b5b5b5b5b5b5b5b5b5b5b5b5b5b5          a5Z5Y5X5W5V5U5        T5b5b5b5b5b5b5            ",
"              S5S5S5S5S5S5S5S5S5S5S5S5S5S5S5S5S5S5S5S5S5S5S5R5        Q5P5O5N5M5L5K5J5I5        K5S5S5S5S5S5            ",
"            H5H5H5H5H5H5H5H5H5H5H5H5H5H5H5H5H5H5H5H5H5H5H5G5        F5E5D5          C5B5A5      ;5H5H5H5H5H5H5          ",
"            :5:5:5:5:5:5:5:5:5:5:5:5:5:5:5:5:5:5:5:5:5:5:595      857565              55:545      35:5:5:5:5:5          ",
"          25151515151515151515151515151515151515151515151505      z4y4                  x4w4      351515151515v4        ",
"          u4u4u4u4u4u4u4u4u4u4u4u4u4u4u4u4u4u4u4u4u4u4u4u4t4    s4r4q4                  p4o4      n4u4u4u4u4u4u4        ",
"          m4m4m4m4m4m4m4m4m4m4m4m4m4m4m4m4m4m4m4m4m4m4m4l4k4j4i4h4g4f4e4d4d4d4d4d4d4d4c4b4l4j4d4a4Z4m4m4m4m4m4m4        ",
"        Y4X4X4X4X4X4X4X4X4X4X4X4X4X4X4X4X4X4X4X4X4X4X4X4W4V4U4U4T4S4R4Q4P4P4P4P4P4O4P4N4M4L4N4O4K4J4X4X4X4X4X4X4I4      ",
"        H4H4H4H4H4H4H4H4H4H4H4H4H4H4H4H4H4H4H4H4H4H4H4G4F4E4D4C4B4A4;4:4D4D4D4D4D4D4D4948474E4D4C464H4H4H4H4H4H4H4      ",
"        54545454545454545454545454545454545454545454443424141404z3y3x3w3v3141414141414u354t3v304s3r354545454545454      ",
"        q3q3q3q3q3q3q3q3q3q3q3q3q3q3q3q3q3q3q3q3q3p3o3n3m3l3l3k3m3j3i3h3i4n3k3l3l3g3f3e3d3c3k3l3b3q3q3q3q3q3q3q3q3      ",
"        a3Z3Y3Y3Y3Y3Y3Y3Y3Y3Y3Y3Y3Y3Y3Y3Y3Y3Y3Y3Y3X3W3V3U3U3U3U3V3V3T3S3R3Q3P3O3N3M3Y3L3K3J3U3W3I3Y3Y3Y3Y3Y3Y3Y3Y3      ",
"        H3G3F3E3D3D3D3D3D3D3D3D3D3D3D3D3D3D3D3D3C3m3B3G3G3G3G3G3G3A3A3;3:39383736353433333332313D3D3D3D3D3D3D3D3D3      ",
"        03z2y2x2w2v2u2u2u2u2u2u2u2u2u2u2u2u2u2t2s2r2r2q2q2q2q2q2q2q2r2r2p2G3o2n2m2p2y2r2r2q2l2k2u2u2u2u2u2u2u2u2u2      ",
"        j2i2i2i2i2i2h2g2f2e2d2d2d2d2d2d2d2d2d2c2i2i2i2i2i2i2i2i2i2i2i2i2i2i2i2i2i2i2i2i2i2b2a2d2d2d2d2d2d2d2d2d2d2      ",
"        Z2Y2Y2Y2Y2Y2Y2Y2X2W2V2U2T2T2T2S2R2Q2P2O2Y2Y2Y2Y2Y2Y2Y2Y2Y2Y2Y2Y2Y2Y2Y2Y2Y2Y2X2N2M2T2T2T2T2T2T2T2T2T2T2T2T2      ",
"        L2K2K2K2K2K2K2K2J2J2K2K2I2H2G2F2K2K2K2J2K2K2K2K2K2K2K2K2K2K2K2K2K2K2E2D2C2B2A2;2:2:2:2:2:2:2:2:2:2:2:2:2:2      ",
"        B392929292929292929292929282829272726282929292929292929292929292929252424242424242424242424242424242424242      ",
"        3222121212121212121212121212121202z1y1x1w1v112121212121212121212u1x1t1t1t1t1t1t1t1t1t1t1t1t1t1t1t1t1t1t1s1      ",
"        r1q1p1p1p1p1p1p1p1p1p1p1p1p1p1p1p1p1p1o1n1m1l1p1p1p1p1p1p1p1p1k1j1i1i1i1i1i1i1i1i1i1i1i1i1i1i1i1i1i1i1i1h1      ",
"          g1f1f1f1f1f1f1f1f1f1f1f1f1f1f1f1f1f1f1e1d1c1b1f1f1f1f1f1a1d1Z1Z1Z1Z1Z1Z1Z1Z1Z1Z1Z1Z1Z1Z1Z1Z1Z1Z1Z1Z1Z1        ",
"          Y1X1W1V1V1V1V1V1V1V1V1V1V1V1V1V1V1V1V1V1V1U1T1V1V1V1S1R1Q1Q1Q1Q1Q1Q1Q1Q1Q1Q1Q1Q1Q1Q1Q1Q1Q1Q1Q1Q1Q1Q1Q1        ",
"          P1O1N1M1L1K1K1K1K1K1K1K1K1K1K1K1K1K1K1K1K1J1I1K1K1H1G1O1O1O1O1O1O1O1O1O1O1O1O1O1O1O1O1O1O1O1O1O1O1O1F1        ",
"            E1E1E1D1C1B1K1K1K1K1K1K1K1K1K1K1K1K1K1K1A1;1K1K1:1E1E1E1E1E1E1E1E1E1E1E1E1E1E1E1E1E1E1E1E1E1E1E1E1          ",
"            919191919191817161K1K1K1K1K1K1K1K1K1K1K15141K1K181919191919191919191919191919191919191919191919131          ",
"              212121212121211101K1K1K1K1K1K1K1K1K1z0y0x0K1K1w02121212121212121212121212121212121212121212121            ",
"              v0v0v0v0v0v0v0v0u0K1t0s0K1K1K1K1K1f1r0q0p0K1o0v0v0v0v0v0v0v0v0v0v0v0v0v0v0v0v0v0v0v0v0v0v0v0n0            ",
"                m0m0m0m0m0m0m0l0K1K1k0j0i0h0g0f0e0d0c0K1K1b0m0m0m0m0m0m0m0m0m0m0m0m0m0m0m0m0m0m0m0m0m0m0m0              ",
"                a0a0a0a0a0a0a0a0Z0K1K1Y0X0W0W0V0U0T0K1K1S0a0a0a0a0a0a0a0a0a0a0a0a0a0a0a0a0a0a0a0a0a0a0a0a0              ",
"                  R0R0R0R0R0R0R0Q0P0O0K1K1K1K1K1K1K1N0M0R0R0R0R0R0R0R0R0R0R0R0R0R0R0R0R0R0R0R0R0R0R0R0R0                ",
"                    L0L0L0L0L0L0L0L0K0J0I0K1K1H0G0F0E0L0L0L0L0L0L0L0L0L0L0L0L0L0L0L0L0L0L0L0L0L0L0L0L0                  ",
"                      D0D0D0D0D0D0D0D0D0C0B0A0;0:0D0D0D0D0D0D0D0D0D0D0D0D0D0D0D0D0D0D0D0D0D0D0D0D0D0                    ",
"                        90909090909090909090909090909090909090909090909090909090909090909090909090                      ",
"                          8080808080808080808080808080808080808080808080808080808080808080808080                        ",
"                            707070707070707070707070707070707070707070707070707070707070707070                          ",
"                              60606060606060606060606060606060606060606060606060606060606050                            ",
"                                  404040404040404040404040404040404040404040404040404040                                ",
"                                      3030303030303030303030303030303030303030303030                                    ",
"                                            2010101010101010101010101010101020                                          ",
"                                                  0000000000000000000000                                                ",
"                                                                                                                        ",
"                                                                                                                        ",
"                                                                                                                        "};
