/* XPM */
static char *image[] = {
"32 32 539 2",
"   c None",
"00 c #c80c6f",
"10 c #dd0b72",
"20 c #e30b72",
"30 c #e40c6f",
"40 c #e50c6f",
"50 c #e50b70",
"60 c #dc0c70",
"70 c #c80d6d",
"80 c #d80c71",
"90 c #e60b72",
":0 c #e20d6b",
";0 c #de0f64",
"A0 c #de0f63",
"B0 c #df0f65",
"C0 c #e00f67",
"D0 c #e40c6e",
"E0 c #dc0c6f",
"F0 c #d2106d",
"G0 c #e90e6f",
"H0 c #e60f6b",
"I0 c #e31166",
"J0 c #e21461",
"K0 c #e71c58",
"L0 c #ec2354",
"M0 c #f42b50",
"N0 c #f32a51",
"O0 c #f22a52",
"P0 c #f22954",
"Q0 c #e92156",
"R0 c #e51c59",
"S0 c #df145d",
"T0 c #de1062",
"U0 c #e40d6d",
"V0 c #d20d6d",
"W0 c #e8186c",
"X0 c #eb136a",
"Y0 c #e81464",
"Z0 c #eb1e59",
"a0 c #f52f4c",
"b0 c #fb324f",
"c0 c #fa3052",
"d0 c #f32a55",
"e0 c #e61c5b",
"f0 c #de1063",
"g0 c #e20e6a",
"h0 c #de0c6f",
"i0 c #ec3065",
"j0 c #ef2763",
"k0 c #ec215d",
"l0 c #f4314c",
"m0 c #ff3a45",
"n0 c #f62c55",
"o0 c #e4185e",
"p0 c #e10e68",
"q0 c #de0d6d",
"r0 c #ed4760",
"s0 c #f33f5f",
"t0 c #ef3858",
"u0 c #fb4e42",
"v0 c #ff4e3c",
"w0 c #ff483c",
"x0 c #ff433f",
"y0 c #ff4140",
"z0 c #ff3d43",
"01 c #ff3946",
"11 c #ff3647",
"21 c #fe354a",
"31 c #fc334d",
"41 c #fb3151",
"51 c #ed2259",
"61 c #e10e67",
"71 c #de0c6e",
"81 c #df575b",
"91 c #f6555c",
":1 c #f34f56",
";1 c #fc6440",
"A1 c #ff643a",
"B1 c #ff5d39",
"C1 c #ff5638",
"D1 c #ff4f38",
"E1 c #ff4e39",
"F1 c #ff3747",
"G1 c #fe344a",
"H1 c #fc334e",
"I1 c #f02557",
"J1 c #e20e69",
"K1 c #d10d6d",
"L1 c #f96a5a",
"M1 c #f56156",
"N1 c #fc7641",
"O1 c #ff7a39",
"P1 c #ff6c36",
"Q1 c #ff6534",
"R1 c #ff5d33",
"S1 c #ff5933",
"T1 c #ff5436",
"U1 c #ff493c",
"V1 c #ff4042",
"W1 c #ff3c43",
"X1 c #fd344b",
"Y1 c #f12557",
"Z1 c #e30d6c",
"a1 c #ea7756",
"b1 c #f97656",
"c1 c #fa7e48",
"d1 c #ff8d38",
"e1 c #ff8736",
"f1 c #ff8135",
"g1 c #ff7a33",
"h1 c #ff7331",
"i1 c #ff6634",
"j1 c #ff5b35",
"k1 c #d94f53",
"l1 c #9b4382",
"m1 c #834190",
"n1 c #834290",
"o1 c #8d4488",
"p1 c #c14e60",
"q1 c #f56936",
"r1 c #ff4d3a",
"s1 c #ff4340",
"t1 c #ff3846",
"u1 c #fe3549",
"v1 c #ee1e5c",
"w1 c #dc0c6e",
"x1 c #fb8a55",
"y1 c #f98351",
"z1 c #fe9c3a",
"02 c #ff9936",
"12 c #ff8d32",
"22 c #ff8433",
"32 c #ff7337",
"42 c #ff6d35",
"52 c #f66839",
"62 c #9c3e8b",
"72 c #6830b4",
"82 c #6235b4",
"92 c #5b3ab2",
":2 c #593bb1",
";2 c #593ab0",
"A2 c #5939af",
"B2 c #6e479c",
"C2 c #e07c3c",
"D2 c #ff5635",
"E2 c #ff4e3a",
"F2 c #ff4240",
"G2 c #ff3e43",
"H2 c #ff3945",
"I2 c #ff3648",
"J2 c #e71268",
"K2 c #fc9552",
"L2 c #fb9948",
"M2 c #ffaa37",
"N2 c #ffa535",
"O2 c #ff9f33",
"P2 c #ff9037",
"Q2 c #ff813a",
"R2 c #ff8234",
"S2 c #ff832e",
"T2 c #9a3d95",
"U2 c #732dbb",
"V2 c #6d36bf",
"W2 c #663fc1",
"X2 c #5f45c0",
"Y2 c #5948be",
"Z2 c #5845ba",
"a2 c #5840b6",
"b2 c #593ab1",
"c2 c #6340a6",
"d2 c #e08d36",
"e2 c #ff5934",
"f2 c #ff483d",
"g2 c #ff443f",
"h2 c #ff3f42",
"i2 c #ff3b44",
"j2 c #f52854",
"k2 c #d80c6e",
"l2 c #f8a351",
"m2 c #fc9f50",
"n2 c #fdae40",
"o2 c #ffb437",
"p2 c #ffaf34",
"q2 c #fe983e",
"r2 c #fe8c40",
"s2 c #ff9434",
"t2 c #ff962e",
"u2 c #cf6b5f",
"v2 c #7d2ac1",
"w2 c #7a35c9",
"x2 c #743fcd",
"y2 c #6d49d0",
"z2 c #654fd0",
"03 c #5f52cd",
"13 c #5a52c8",
"23 c #584dc2",
"33 c #5845bb",
"43 c #593cb2",
"53 c #6f469d",
"63 c #ff941f",
"73 c #ff5336",
"83 c #ff4f39",
"93 c #ff4a3c",
":3 c #ff453e",
";3 c #ff4041",
"A3 c #ff3c44",
"B3 c #e01467",
"C3 c #f7ac50",
"D3 c #fca84f",
"E3 c #ffbf3a",
"F3 c #ffbd36",
"G3 c #fea93f",
"H3 c #fd864f",
"I3 c #ffa336",
"J3 c #ffa52f",
"K3 c #ffa828",
"L3 c #a24798",
"M3 c #8430cb",
"N3 c #823bd6",
"O3 c #7c46db",
"P3 c #754fde",
"Q3 c #6e56de",
"R3 c #675adb",
"S3 c #625ad7",
"T3 c #5f55d1",
"U3 c #5e4ec8",
"V3 c #5f43be",
"W3 c #6037b4",
"X3 c #c47d53",
"Y3 c #ff702a",
"Z3 c #ff5a32",
"a3 c #ff5535",
"b3 c #ff5038",
"c3 c #ff4b3b",
"d3 c #ff463e",
"e3 c #ff4141",
"f3 c #f42757",
"g3 c #feba4e",
"h3 c #fdb44c",
"i3 c #ffca39",
"j3 c #ffc13a",
"k3 c #fe9b4c",
"l3 c #ff934a",
"m3 c #ffb232",
"n3 c #ffb52c",
"o3 c #ffb726",
"p3 c #892ac4",
"q3 c #8a36d3",
"r3 c #8a41e0",
"s3 c #864ae8",
"t3 c #7f53eb",
"u3 c #785aeb",
"v3 c #725ee8",
"w3 c #6d5ee4",
"x3 c #695ade",
"y3 c #6853d6",
"z3 c #6848cb",
"04 c #693bbf",
"14 c #b46f69",
"24 c #ff9022",
"34 c #ff612e",
"44 c #ff5c31",
"54 c #fa3849",
"64 c #fec54c",
"74 c #fdc447",
"84 c #ffd23a",
"94 c #ffb645",
":4 c #ffa44b",
";4 c #ffa047",
"A4 c #ffbf30",
"B4 c #ffc12c",
"C4 c #8f2dca",
"D4 c #9139d9",
"E4 c #9144e6",
"F4 c #8f4cf0",
"G4 c #8b54f5",
"H4 c #845af5",
"I4 c #7e5ef3",
"J4 c #795ef0",
"K4 c #755bea",
"L4 c #7455e2",
"M4 c #734bd7",
"N4 c #7b46c0",
"O4 c #eda234",
"P4 c #ff9d20",
"Q4 c #ff672a",
"R4 c #ff622d",
"S4 c #ff473d",
"T4 c #ffcf4b",
"U4 c #fecd46",
"V4 c #ffd63c",
"W4 c #ffb34c",
"X4 c #ffaf48",
"Y4 c #ffac45",
"Z4 c #ffc533",
"a4 c #a243bb",
"b4 c #983adc",
"c4 c #9845e9",
"d4 c #974df2",
"e4 c #9453f8",
"f4 c #9157fc",
"g4 c #8c5afc",
"h4 c #875bf9",
"i4 c #8359f4",
"j4 c #885be0",
"k4 c #ae779c",
"l4 c #eeab3c",
"m4 c #ffa820",
"n4 c #ff8423",
"o4 c #ff6c29",
"p4 c #ff5833",
"q4 c #ff5237",
"r4 c #ff4c3a",
"s4 c #ffd649",
"t4 c #fed546",
"u4 c #ffd543",
"v4 c #ffbe4a",
"w4 c #ffba47",
"x4 c #ffb744",
"y4 c #ffc33b",
"z4 c #ffd035",
"05 c #c16d97",
"15 c #9e3ade",
"25 c #a043e9",
"35 c #a04af2",
"45 c #9e4ff7",
"55 c #9a52fa",
"65 c #aa6ed8",
"75 c #e4b66a",
"85 c #ffc930",
"95 c #ffc22c",
":5 c #ffb825",
";5 c #ffb321",
"A5 c #ffa41a",
"B5 c #ff7e22",
"C5 c #ff642d",
"D5 c #ff5e30",
"E5 c #ff5834",
"F5 c #ff5137",
"G5 c #ffd947",
"H5 c #fed947",
"I5 c #ffd647",
"J5 c #ffc749",
"K5 c #ffc447",
"L5 c #ffc143",
"M5 c #ffc13f",
"N5 c #ffd43a",
"O5 c #ffd63a",
"P5 c #f3c24e",
"Q5 c #aa42d3",
"R5 c #a740e8",
"S5 c #a846ef",
"T5 c #a74af3",
"U5 c #a34cf5",
"V5 c #f9d047",
"W5 c #ffce34",
"X5 c #ffbd28",
"Y5 c #ffbf2a",
"Z5 c #ffc12b",
"a5 c #ffc02a",
"b5 c #ffbb27",
"c5 c #ffb523",
"d5 c #ffaf1f",
"e5 c #ffaa1a",
"f5 c #ffa416",
"g5 c #ff7027",
"h5 c #ff5d30",
"i5 c #ff5734",
"j5 c #ffdd45",
"k5 c #fedc45",
"l5 c #ffda48",
"m5 c #ffd049",
"n5 c #ffcd46",
"o5 c #ffca43",
"p5 c #ffc83f",
"q5 c #ffca3c",
"r5 c #ffda3d",
"s5 c #df9f7b",
"t5 c #ae3ce4",
"u5 c #b042eb",
"v5 c #ad46f0",
"w5 c #cb71a4",
"x5 c #f5a53b",
"y5 c #ffad1d",
"z5 c #ffa618",
"06 c #ff9e14",
"16 c #ffa219",
"26 c #ffac20",
"36 c #ffa61e",
"46 c #ffa01c",
"56 c #ff8b1d",
"66 c #ff7225",
"76 c #ff6929",
"86 c #ff632d",
"96 c #ff5d31",
":6 c #fede44",
";6 c #ffd948",
"A6 c #ffd549",
"B6 c #ffd446",
"C6 c #ffd243",
"D6 c #ffd040",
"E6 c #ffce3c",
"F6 c #ffce3a",
"G6 c #e5ac66",
"H6 c #efc15e",
"I6 c #f1c562",
"J6 c #bb47dd",
"K6 c #b83eea",
"L6 c #b640ec",
"M6 c #b342ed",
"N6 c #b044ee",
"O6 c #d17494",
"P6 c #faa72a",
"Q6 c #ffa719",
"R6 c #ff9712",
"S6 c #ff8f14",
"T6 c #ff821b",
"U6 c #ff7c1e",
"V6 c #ff7522",
"W6 c #ff6e26",
"X6 c #ff682a",
"Y6 c #ffe046",
"Z6 c #fedc48",
"a6 c #ffd748",
"b6 c #ffda46",
"c6 c #ffd944",
"d6 c #ffd741",
"e6 c #ffd53d",
"f6 c #ffd339",
"g6 c #f1b94e",
"h6 c #b349c1",
"i6 c #af36dd",
"j6 c #b53ae3",
"k6 c #bc3be8",
"l6 c #bb3ce9",
"m6 c #b73eea",
"n6 c #b23fe9",
"o6 c #bc53c0",
"p6 c #faa82a",
"q6 c #ff8f13",
"r6 c #ff8817",
"s6 c #ff811b",
"t6 c #ff7b1f",
"u6 c #ff7423",
"v6 c #ff6d27",
"w6 c #ffe248",
"x6 c #fee149",
"y6 c #fdd948",
"z6 c #ffdb46",
"07 c #ffdd44",
"17 c #ffdd42",
"27 c #ffda3e",
"37 c #ffd83c",
"47 c #ffd73a",
"57 c #f5c54d",
"67 c #bf60b6",
"77 c #b137e0",
"87 c #b63ae4",
"97 c #b93be6",
":7 c #ba3be6",
";7 c #b83ae5",
"A7 c #b439e3",
"B7 c #af37df",
"C7 c #ca6495",
"D7 c #ffa924",
"E7 c #ffa819",
"F7 c #ffa014",
"G7 c #ff9812",
"H7 c #ff8e14",
"I7 c #ff8718",
"J7 c #ff801c",
"K7 c #ff7920",
"L7 c #ff7324",
"M7 c #ffe34b",
"N7 c #f1d64b",
"O7 c #ffdc45",
"P7 c #ffdf44",
"Q7 c #ffe042",
"R7 c #ffe041",
"S7 c #ffde40",
"T7 c #ffdd3f",
"U7 c #ffdc3e",
"V7 c #fdd13e",
"W7 c #efb55b",
"X7 c #d68492",
"Y7 c #d073a3",
"Z7 c #ca65b1",
"a7 c #b339e2",
"b7 c #ff973c",
"c7 c #ff9236",
"d7 c #ff8a33",
"e7 c #ff9122",
"f7 c #ff9612",
"g7 c #ff8c15",
"h7 c #ff8519",
"i7 c #ff7e1d",
"j7 c #fce34f",
"k7 c #ffe043",
"l7 c #ffe443",
"m7 c #ffcf35",
"n7 c #ffcb32",
"o7 c #ffc72f",
"p7 c #f8a33b",
"q7 c #ff9a3c",
"r7 c #ff8a3c",
"s7 c #ff9f14",
"t7 c #ff9414",
"u7 c #ff8a16",
"v7 c #ffe143",
"w7 c #ffe545",
"x7 c #ffe746",
"y7 c #ffdd3e",
"z7 c #ffd83b",
"08 c #ffd438",
"18 c #fdb53b",
"28 c #fda418",
"38 c #ff9d14",
"48 c #ffe645",
"58 c #ffeb48",
"68 c #ffe343",
"78 c #ffdf40",
"88 c #ffdb3d",
"98 c #ffac1d",
":8 c #ffe846",
";8 c #ffea48",
"A8 c #ffee4a",
"B8 c #ffe847",
"C8 c #ffe444",
"D8 c #ffe242",
"E8 c #ffeb49",
"F8 c #ffed4a",
"G8 c #ffec49",
"H8 c #ffe947",
"I8 c #fff04d",
"J8 c #ffee4b",
"K8 c #ffef4c",
"L8 c #fff24e",
"M8 c #fff04c",
"N8 c #fff14d",
"                                        N8                      ",
"                                    M8L8N8K8                    ",
"                                    J8N8I8J8                    ",
"                                  H8G8M8K8F8E8                  ",
"                                D8C8B8A8J8G8;8:8                ",
"            98                  887868;8E858H848C8              ",
"          3828      18          08z7y748x7:8x7w768v7            ",
"        u7t7s7  r7q7p7        o7n7m70878D868C8l7D8k7  j7        ",
"      i7h7g7f7e7d7c7b7      a7Z7Y7X7W7V7U7T7S7R7Q7P7O7N7M7      ",
"    L7K7J7I7H7G7F7E7D7C7B7A7;7:797877767574737271707z6y6x6w6    ",
"    v6u6t6s6r6q6G7F7E7p6o6n6m6l6k6:7j6i6h6g6f6e6d6c6b6a6Z6Y6    ",
"    X6W6V6U6T6r6S6R6F7Q6P6O6N6M6L6K6J6I6H6G6F6E6D6C6B6A6;6:6    ",
"  9686766656463626261606z5y5x5w5v5N6u5t5s5U7r5q5p5o5n5m5l5k5j5  ",
"  i5h586g5f5e5d5c5b5a5Z5Y5X5W5V5U5T5S5R5Q5P5O5N5M5L5K5J5I5H5G5  ",
"  F5E5D5C5B5A5y5;5:5X59585m77565554535251505z4z4y4x4w4v4u4t4s4  ",
"  r4q4p4D586o4n4m4c5l4k4j4i4h4g4f4e4d4c4b4a48585Z4Y4X4W4V4U4T4  ",
"  S4r4q4i5h5R4Q4P4O4N4M4L4K4J4I4H4G4F4E4D4C4Z5B4A4;4:494847464  ",
"  54S4r4F5i54434241404z3y3x3w3v3u3t3s3r3q3p3o3n3m3l3k3j3i3h3g3  ",
"  f3e3d3c3b3a3Z3Y3X3W3V3U3T3S3R3Q3P3O3N3M3L3K3J3I3H3G3F3E3D3C3  ",
"  B3A3;3:3938373i563534333231303z2y2x2w2v2u2t2s2r2q2p2o2n2m2l2  ",
"  k2j2i2h2g2f2r4b3e2d2c2b2a2Z2Y2X2W2V2U2T2S2R2Q2P2O2N2M2L2K2    ",
"    J2I2H2G2F2d393E2D2C2B2A2;2:2928272625242322212s202z1y1x1    ",
"    w1v1u1t1i2h2s1d393r1q1p1o1n1m1l1k1D2j1i1h1g1f1e1d1c1b1a1    ",
"      Z1Y1X1I2H2W1V1s1d3U1r483F5q473T1i5S1R1Q1P132O1N1M1L1      ",
"      K1J1I1H1G1F1H2W1h2F2g2S4U1c3r1E1D1b3F5C1B1A1;1:19181      ",
"        7161514131211101i2z0h2y0x0:3d3S4w0U1U1v0u0t0s0r0        ",
"          q0p0o0n041H1X1u1F1H2m0A3G2h2;3e3e3F2l0k0j0i0          ",
"            h0g0f0e0d0c0b031X1u1I2F1t101m0a0Z0Y0X0W0            ",
"              V0U0p0T0S0R0Q0P0O0N0M0L0K0J0I0H0G0F0              ",
"                  E0D0g0C0B0A0f0;0B0p0:0D09080                  ",
"                      70605040304050201000                      ",
"                                                                "};
