/* XPM */
static char *image[] = {
"32 32 971 2",
"   c None",
"00 c #97948c",
"10 c #ffe134",
"20 c #ff8e00",
"30 c #f84d00",
"40 c #c9591a",
"50 c #83552e",
"60 c #d6d1d7",
"70 c #dfa590",
"80 c #761600",
"90 c #6f2e02",
":0 c #4f28b8",
";0 c #1f11db",
"A0 c #1c0ba6",
"B0 c #3a219d",
"C0 c #0d0b49",
"D0 c #000076",
"E0 c #4b1544",
"F0 c #911f00",
"G0 c #9b594d",
"H0 c #8f6467",
"I0 c #9a5a52",
"J0 c #b87a77",
"K0 c #986968",
"L0 c #b1371a",
"M0 c #885159",
"N0 c #eee6eb",
"O0 c #ffdfc8",
"P0 c #ffa063",
"Q0 c #ef540f",
"R0 c #e8860b",
"S0 c #3250e5",
"T0 c #335afe",
"U0 c #5554b7",
"V0 c #cf9d6f",
"W0 c #ffa800",
"X0 c #ca3000",
"Y0 c #5f0000",
"Z0 c #906c7c",
"a0 c #bb724f",
"b0 c #9c340a",
"c0 c #5e2200",
"d0 c #3f1c3a",
"e0 c #3b21f1",
"f0 c #100aa5",
"g0 c #3a23a5",
"h0 c #261b7b",
"i0 c #000089",
"j0 c #502b6b",
"k0 c #8b3d19",
"l0 c #881600",
"m0 c #a45c52",
"n0 c #a36d6b",
"o0 c #a05547",
"p0 c #b36354",
"q0 c #c24d30",
"r0 c #764f5f",
"s0 c #926573",
"t0 c #d09e8b",
"u0 c #f5ece3",
"v0 c #e2e0f0",
"w0 c #673951",
"x0 c #e04600",
"y0 c #313871",
"z0 c #314ae5",
"01 c #3353ff",
"11 c #3150de",
"21 c #786492",
"31 c #ffce1a",
"41 c #ff6d00",
"51 c #c25c3a",
"61 c #9a553e",
"71 c #a33e15",
"81 c #4a1d08",
"91 c #080300",
":1 c #3d22b5",
";1 c #1619d9",
"A1 c #3224b6",
"B1 c #3e2d90",
"C1 c #00039f",
"D1 c #4f1269",
"E1 c #b0460a",
"F1 c #a14b35",
"G1 c #7c0c00",
"H1 c #8d4441",
"I1 c #b5a4c1",
"J1 c #c28b87",
"K1 c #d58a6e",
"L1 c #b194a9",
"M1 c #9f7b96",
"N1 c #9e4c50",
"O1 c #a6727b",
"P1 c #776e83",
"Q1 c #71331a",
"R1 c #b54609",
"S1 c #303563",
"T1 c #314ded",
"U1 c #3351ff",
"V1 c #334fff",
"W1 c #3354ff",
"X1 c #4444b9",
"Y1 c #d59d5c",
"Z1 c #ffaa4e",
"a1 c #89351b",
"b1 c #a24423",
"c1 c #77321d",
"d1 c #170d57",
"e1 c #473bff",
"f1 c #3835cd",
"g1 c #5f46b8",
"h1 c #2f2aa5",
"i1 c #100098",
"j1 c #d85611",
"k1 c #ff8f20",
"l1 c #d38263",
"m1 c #c24105",
"n1 c #d57645",
"o1 c #f3937d",
"p1 c #f78b45",
"q1 c #eee7ee",
"r1 c #f5f3ff",
"s1 c #fbe9e8",
"t1 c #90737e",
"u1 c #441a15",
"v1 c #a34110",
"w1 c #87360d",
"x1 c #363f86",
"y1 c #344bc7",
"z1 c #324cd0",
"02 c #3352ff",
"12 c #3350ff",
"22 c #3359ff",
"32 c #305bdd",
"42 c #b49497",
"52 c #8e2a00",
"62 c #8e3c22",
"72 c #903d22",
"82 c #1f0b06",
"92 c #433098",
":2 c #918fff",
";2 c #5f59f3",
"A2 c #533cb5",
"B2 c #2120b2",
"C2 c #502b73",
"D2 c #ffa933",
"E2 c #ffee9e",
"F2 c #ffe3b3",
"G2 c #ffa251",
"H2 c #fd4a13",
"I2 c #fb681a",
"J2 c #fffeff",
"K2 c #e4eef7",
"L2 c #20191e",
"M2 c #7d361b",
"N2 c #923f1e",
"O2 c #642205",
"P2 c #3d4380",
"Q2 c #304093",
"R2 c #2e41a3",
"S2 c #3549c4",
"T2 c #3448d5",
"U2 c #3357ff",
"V2 c #335bff",
"W2 c #ceafaf",
"X2 c #902c00",
"Y2 c #6e2d18",
"Z2 c #6c2e19",
"a2 c #3f1a10",
"b2 c #65587d",
"c2 c #babbff",
"d2 c #7a76fb",
"e2 c #4b3dc1",
"f2 c #1f26c4",
"g2 c #6d3b6f",
"h2 c #fff097",
"i2 c #ffedd7",
"j2 c #ffaf80",
"k2 c #fb6314",
"l2 c #fffefa",
"m2 c #ecf5fd",
"n2 c #282a40",
"o2 c #460c00",
"p2 c #ad3a05",
"q2 c #a43903",
"r2 c #9d3e0c",
"s2 c #393b6d",
"t2 c #354acb",
"u2 c #323b82",
"v2 c #2d2f59",
"w2 c #3045ac",
"x2 c #2d47c1",
"y2 c #5870d7",
"z2 c #edcfca",
"03 c #964b35",
"13 c #672712",
"23 c #582413",
"33 c #35150c",
"43 c #020207",
"53 c #4e474a",
"63 c #c1b4e1",
"73 c #8d8bff",
"83 c #6163f1",
"93 c #4245df",
":3 c #6c4880",
";3 c #eed9c2",
"A3 c #ffe2d0",
"B3 c #feab7c",
"C3 c #fc7322",
"D3 c #79738a",
"E3 c #420500",
"F3 c #ba3f03",
"G3 c #a13609",
"H3 c #91340b",
"I3 c #9f3c0c",
"J3 c #363967",
"K3 c #3d3f6f",
"L3 c #31335c",
"M3 c #2f4be0",
"N3 c #3358ff",
"O3 c #243282",
"P3 c #82849e",
"Q3 c #f4dde3",
"R3 c #9d615d",
"S3 c #591600",
"T3 c #2a0e08",
"U3 c #090406",
"V3 c #000107",
"W3 c #010306",
"X3 c #000103",
"Y3 c #3c1602",
"Z3 c #f4d2bf",
"a3 c #b7b7fe",
"b3 c #9490fd",
"c3 c #5054f3",
"d3 c #4745c9",
"e3 c #fc6201",
"f3 c #ff4f00",
"g3 c #ff9b58",
"h3 c #e1d2dc",
"i3 c #671106",
"j3 c #9a2d01",
"k3 c #bc4a0d",
"l3 c #a53a13",
"m3 c #8a310f",
"n3 c #88330e",
"o3 c #373968",
"p3 c #353764",
"q3 c #2b2e52",
"r3 c #304ecc",
"s3 c #3146a8",
"t3 c #292e66",
"u3 c #a4a6ba",
"v3 c #e8d7dc",
"w3 c #76414b",
"x3 c #613748",
"y3 c #251619",
"z3 c #000006",
"04 c #8c5529",
"14 c #ffffe4",
"24 c #ececff",
"34 c #cab1e2",
"44 c #9d7971",
"54 c #c65735",
"64 c #fa7e0b",
"74 c #f38e3a",
"84 c #943c28",
"94 c #831d00",
":4 c #a13b19",
";4 c #9a3922",
"A4 c #8f351d",
"B4 c #9b3a1b",
"C4 c #8c3513",
"D4 c #323461",
"E4 c #323463",
"F4 c #2e3364",
"G4 c #212443",
"H4 c #2c2d55",
"I4 c #2b2b58",
"J4 c #9891aa",
"K4 c #92636c",
"L4 c #95779b",
"M4 c #c4a2b9",
"N4 c #af664a",
"O4 c #602a13",
"P4 c #1d0000",
"Q4 c #30181c",
"R4 c #7c564a",
"S4 c #5a3b46",
"T4 c #200007",
"U4 c #dcbd9e",
"V4 c #d3d1db",
"W4 c #675b7f",
"X4 c #dcc58b",
"Y4 c #fff399",
"Z4 c #f09531",
"a4 c #ea6c00",
"b4 c #7d1600",
"c4 c #9c3b21",
"d4 c #aa422c",
"e4 c #9a3f2d",
"f4 c #9b3e2c",
"g4 c #9d3c22",
"h4 c #8e3613",
"i4 c #292c53",
"j4 c #282a50",
"k4 c #272a50",
"l4 c #232547",
"m4 c #1f2245",
"n4 c #21244a",
"o4 c #a79baa",
"p4 c #b78f98",
"q4 c #bb867f",
"r4 c #bb725d",
"s4 c #c26e57",
"t4 c #da8f6b",
"u4 c #dfa488",
"v4 c #e7cbc1",
"w4 c #fffcf7",
"x4 c #ffffeb",
"y4 c #fcc19b",
"z4 c #7c3735",
"05 c #92616f",
"15 c #6c678b",
"25 c #2f2a52",
"35 c #3b345f",
"45 c #b27f7b",
"55 c #ff700c",
"65 c #e34500",
"75 c #8e2f0a",
"85 c #993823",
"95 c #973b2f",
":5 c #9a3f3b",
";5 c #a6433c",
"A5 c #8f3523",
"B5 c #8d3412",
"C5 c #1c1f3e",
"D5 c #202344",
"E5 c #1b1e3c",
"F5 c #191d3c",
"G5 c #26284a",
"H5 c #e9d8d2",
"I5 c #c5a2a0",
"J5 c #bb7e68",
"K5 c #b35f48",
"L5 c #a65141",
"M5 c #b46043",
"N5 c #c98c73",
"O5 c #e1c6be",
"P5 c #feefed",
"Q5 c #ffe1bf",
"R5 c #ca7744",
"S5 c #d5a09b",
"T5 c #5b557e",
"U5 c #332b4e",
"V5 c #302b52",
"W5 c #965143",
"X5 c #ff5f00",
"Y5 c #e36208",
"Z5 c #7d2b09",
"a5 c #812b15",
"b5 c #8e3629",
"c5 c #953a34",
"d5 c #8d342d",
"e5 c #7e2d1a",
"f5 c #7b2c0d",
"g5 c #202245",
"h5 c #1b1e3e",
"i5 c #191b3b",
"j5 c #3f3a59",
"k5 c #b1a2ac",
"l5 c #d9c7c5",
"m5 c #caa49c",
"n5 c #bd8d81",
"o5 c #672d1e",
"p5 c #48150f",
"q5 c #641a1d",
"r5 c #9e514c",
"s5 c #a47f7c",
"t5 c #c6a19f",
"u5 c #ffe8e7",
"v5 c #ffeedd",
"w5 c #f2c39e",
"x5 c #f9d7c5",
"y5 c #c8afb7",
"z5 c #615676",
"06 c #43437b",
"16 c #934f4b",
"26 c #e65800",
"36 c #f57e00",
"46 c #742806",
"56 c #76250d",
"66 c #762912",
"76 c #782c11",
"86 c #7b2a10",
"96 c #70260f",
":6 c #6f270c",
";6 c #25264b",
"A6 c #202143",
"B6 c #191a36",
"C6 c #222241",
"D6 c #d19a88",
"E6 c #f9ddd0",
"F6 c #ded2d5",
"G6 c #ba7b5a",
"H6 c #a16345",
"I6 c #280a04",
"J6 c #181319",
"K6 c #38333f",
"L6 c #7a707e",
"M6 c #949696",
"N6 c #886462",
"O6 c #4e1316",
"P6 c #844736",
"Q6 c #f9c7a5",
"R6 c #fbd7c7",
"S6 c #fffff8",
"T6 c #978c9a",
"U6 c #4c4b6e",
"V6 c #a26b5f",
"W6 c #842308",
"X6 c #da770f",
"Y6 c #5a2007",
"Z6 c #601b04",
"a6 c #6a2206",
"b6 c #6f2a09",
"c6 c #702607",
"d6 c #62210a",
"e6 c #65240b",
"f6 c #24264a",
"g6 c #222245",
"h6 c #1d1e3b",
"i6 c #594955",
"j6 c #954d4a",
"k6 c #b4aeb2",
"l6 c #ead0cb",
"m6 c #9d4718",
"n6 c #965c36",
"o6 c #7f453f",
"p6 c #8f575e",
"q6 c #794d52",
"r6 c #80575c",
"s6 c #936259",
"t6 c #834539",
"u6 c #441d1b",
"v6 c #3a0a02",
"w6 c #904b34",
"x6 c #eaae94",
"y6 c #fce9e9",
"z6 c #8781a9",
"07 c #3c3d58",
"17 c #895049",
"27 c #6a240a",
"37 c #823c12",
"47 c #4d1f09",
"57 c #4f1805",
"67 c #542009",
"77 c #4c1a05",
"87 c #571c07",
"97 c #5a2008",
":7 c #5f1f06",
";7 c #222446",
"A7 c #232446",
"B7 c #1c1c30",
"C7 c #512d29",
"D7 c #9c5b5d",
"E7 c #e0e4e9",
"F7 c #eeccbe",
"G7 c #ab5636",
"H7 c #965c35",
"I7 c #935141",
"J7 c #955257",
"K7 c #531913",
"L7 c #57140d",
"M7 c #d89c9f",
"N7 c #feeceb",
"O7 c #c07b75",
"P7 c #5c2718",
"Q7 c #6d2b16",
"R7 c #ca8372",
"S7 c #feece7",
"T7 c #887389",
"U7 c #5e3b17",
"V7 c #8d4b26",
"W7 c #623b20",
"X7 c #381202",
"Y7 c #361205",
"Z7 c #441c09",
"a7 c #4d1d07",
"b7 c #441906",
"c7 c #4b1a05",
"d7 c #652006",
"e7 c #27284c",
"f7 c #252647",
"g7 c #2d2630",
"h7 c #050004",
"i7 c #723e34",
"j7 c #fffbf5",
"k7 c #f8d8c9",
"l7 c #cc9087",
"m7 c #b36e50",
"n7 c #9f5e42",
"o7 c #743525",
"p7 c #3c1004",
"q7 c #200000",
"r7 c #713431",
"s7 c #b77673",
"t7 c #652b1e",
"u7 c #5c281c",
"v7 c #9c4642",
"w7 c #e1a7a0",
"x7 c #ffcab4",
"y7 c #573e56",
"z7 c #875a1b",
"08 c #bc732e",
"18 c #0d0000",
"28 c #2b0d03",
"38 c #4a1d07",
"48 c #461a05",
"58 c #3e1505",
"68 c #4d1a05",
"78 c #521b05",
"88 c #26243c",
"98 c #2f283a",
":8 c #4e3f4d",
";8 c #100d14",
"A8 c #c7bdc0",
"B8 c #ffc898",
"C8 c #c98250",
"D8 c #9f562f",
"E8 c #a06149",
"F8 c #b35c48",
"G8 c #bd5331",
"H8 c #ba7362",
"I8 c #baa095",
"J8 c #904d3c",
"K8 c #692717",
"L8 c #b6756c",
"M8 c #ecadab",
"N8 c #fffffe",
"O8 c #fdffff",
"P8 c #a18a8c",
"Q8 c #715b6f",
"R8 c #1c1c41",
"S8 c #252227",
"T8 c #faa318",
"U8 c #53260f",
"V8 c #070001",
"W8 c #2d1303",
"X8 c #361602",
"Y8 c #361102",
"Z8 c #491803",
"a8 c #4c1904",
"b8 c #312c3e",
"c8 c #3d2a1e",
"d8 c #2a1c19",
"e8 c #120c0c",
"f8 c #86767a",
"g8 c #c7926b",
"h8 c #9d6039",
"i8 c #864730",
"j8 c #4f1f10",
"k8 c #4f1c13",
"l8 c #c46447",
"m8 c #e8b8ac",
"n8 c #fcd3c4",
"o8 c #f6f0ec",
"p8 c #38344b",
"q8 c #716986",
"r8 c #b0adde",
"s8 c #4b3a06",
"t8 c #feb837",
"u8 c #783912",
"v8 c #200c03",
"w8 c #371504",
"x8 c #431604",
"y8 c #461702",
"z8 c #2c2b49",
"09 c #56444a",
"19 c #0d0501",
"29 c #22191b",
"39 c #0a0b09",
"49 c #543a30",
"59 c #8c553a",
"69 c #50323b",
"79 c #3b2b41",
"89 c #190b1a",
"99 c #9d6854",
":9 c #fffdfb",
";9 c #8f5f52",
"A9 c #542a26",
"B9 c #854f4d",
"C9 c #b37673",
"D9 c #ad6850",
"E9 c #e5bfac",
"F9 c #5f5465",
"G9 c #62423c",
"H9 c #8674a2",
"I9 c #1e1929",
"J9 c #04061f",
"K9 c #4f3a13",
"L9 c #f7ad3e",
"M9 c #9f7138",
"N9 c #250300",
"O9 c #160904",
"P9 c #371306",
"Q9 c #431602",
"R9 c #282640",
"S9 c #473335",
"T9 c #362723",
"U9 c #20181a",
"V9 c #1f1c17",
"W9 c #302119",
"X9 c #9a592c",
"Y9 c #995f41",
"Z9 c #3b2625",
"a9 c #080004",
"b9 c #3c1614",
"c9 c #89463b",
"d9 c #ac6252",
"e9 c #672114",
"f9 c #1c0000",
"g9 c #210000",
"h9 c #520100",
"i9 c #963b27",
"j9 c #fffef5",
"k9 c #e1e1fd",
"l9 c #87738c",
"m9 c #633e26",
"n9 c #342b41",
"o9 c #b7aed3",
"p9 c #c4bdce",
"q9 c #121634",
"r9 c #1c1e0d",
"s9 c #f2d164",
"t9 c #ebca79",
"u9 c #692a1a",
"v9 c #170201",
"w9 c #84776a",
"x9 c #402724",
"y9 c #2f1e1c",
"z9 c #322322",
"0: c #372b20",
"1: c #1f1205",
"2: c #583118",
"3: c #653b2a",
"4: c #6f4233",
"5: c #915f52",
"6: c #b67768",
"7: c #c98d71",
"8: c #dca990",
"9: c #eec6b5",
":: c #e5b4aa",
";: c #d5aca9",
"A: c #bb9b9d",
"B: c #e1ccc6",
"C: c #cdc2e7",
"D: c #937d95",
"E: c #534145",
"F: c #4c445c",
"G: c #786d79",
"H: c #64606d",
"I: c #080707",
"J: c #e6c967",
"K: c #ffd44d",
"L: c #6e2815",
"M: c #080000",
"N: c #837675",
"O: c #b08e79",
"P: c #150300",
"Q: c #362523",
"R: c #3c2c23",
"S: c #231707",
"T: c #361705",
"U: c #4c240c",
"V: c #a2653f",
"W: c #e89e75",
"X: c #e3a57c",
"Y: c #efc4a0",
"Z: c #fcdbbc",
"a: c #fff1df",
"b: c #fff0ec",
"c: c #b6a7ca",
"d: c #4c364a",
"e: c #8c737d",
"f: c #5a4c5d",
"g: c #5d4a48",
"h: c #5a5580",
"i: c #0a0716",
"j: c #060305",
"k: c #020102",
"l: c #bf8636",
"m: c #ffa94d",
"n: c #7f3321",
"o: c #26263a",
"p: c #d1baa7",
"q: c #523531",
"r: c #2d1b19",
"s: c #432e26",
"t: c #312411",
"u: c #2a150a",
"v: c #532808",
"w: c #763d1c",
"x: c #98523e",
"y: c #c48669",
"z: c #d19a74",
"0; c #e9be9b",
"1; c #f7c6b9",
"2; c #fad5c8",
"3; c #fffeed",
"4; c #fffff9",
"5; c #fff9fb",
"6; c #836a83",
"7; c #522f2f",
"8; c #94717d",
"9; c #92766c",
":; c #635156",
";; c #423759",
"A; c #2f2845",
"B; c #000001",
"C; c #67627a",
"D; c #f0e5b6",
"E; c #fab86e",
"F; c #19192c",
"G; c #454147",
"H; c #b9998e",
"I; c #3a1e20",
"J; c #4d342c",
"K; c #422f17",
"L; c #231b11",
"M; c #0a0201",
"N; c #48220b",
"O; c #7d3f28",
"P; c #b46548",
"Q; c #e39f78",
"R; c #ffd9bd",
"S; c #fff2e6",
"T; c #ffffff",
"U; c #dccfdb",
"V; c #6d484a",
"W; c #5b3021",
"X; c #673c32",
"Y; c #96767e",
"Z; c #a996a3",
"a; c #af7945",
"b; c #b77940",
"c; c #925b52",
"d; c #8e8996",
"e; c #9e97a5",
"f; c #d7d1d9",
"g; c #d3d4e4",
"h; c #8c818e",
"i; c #d7a87b",
"j; c #151525",
"k; c #171626",
"l; c #997a67",
"m; c #6a4949",
"n; c #4f3534",
"o; c #362416",
"p; c #3a2a13",
"q; c #0e0c0e",
"r; c #060101",
"s; c #2f1608",
"t; c #542512",
"u; c #8e543f",
"v; c #b98578",
"w; c #cbaba7",
"x; c #cfc7c8",
"y; c #cdc4c7",
"z; c #8e7c80",
"0A c #371d30",
"1A c #240405",
"2A c #855e4c",
"3A c #ccb3b2",
"4A c #8a7c90",
"5A c #5f5471",
"6A c #a2704f",
"7A c #ff8307",
"8A c #ff8110",
"9A c #db6617",
":A c #c5673d",
";A c #625971",
"AA c #181729",
"BA c #13121f",
"CA c #53443f",
"DA c #a5816b",
"EA c #624143",
"FA c #47312b",
"GA c #241906",
"HA c #241910",
"IA c #000005",
"JA c #000004",
"KA c #000000",
"LA c #010000",
"MA c #0f0000",
"NA c #130000",
"OA c #160000",
"PA c #1b0300",
"QA c #120000",
"RA c #311a17",
"SA c #4c2e36",
"TA c #9d8891",
"UA c #fffbf8",
"VA c #c6bdc5",
"WA c #a3614e",
"XA c #d46826",
"YA c #ff7307",
"ZA c #ff7a05",
"aA c #ff7700",
"bA c #ff6100",
"cA c #bd563c",
"dA c #373239",
"eA c #1f1b20",
"fA c #0a0b13",
"gA c #181728",
"hA c #13121e",
"iA c #42383c",
"jA c #b59375",
"kA c #835a49",
"lA c #745353",
"mA c #3a281e",
"nA c #221704",
"oA c #221911",
"pA c #070506",
"qA c #0e0a08",
"rA c #0b0504",
"sA c #130903",
"tA c #1d0e03",
"uA c #210e01",
"vA c #231001",
"wA c #3d210f",
"xA c #623d31",
"yA c #715352",
"zA c #b7a6ac",
"0B c #c5bac0",
"1B c #a18583",
"2B c #e05412",
"3B c #ff4800",
"4B c #ff5b00",
"5B c #b5715a",
"6B c #816070",
"7B c #ef6b31",
"8B c #d63d25",
"9B c #c67673",
":B c #cec5d7",
";B c #1c1a2c",
"AB c #1b1a28",
"BB c #3a353f",
"CB c #998478",
"DB c #a47b58",
"EB c #8f6652",
"FB c #967167",
"GB c #57422d",
"HB c #38280d",
"IB c #1c120a",
"JB c #170e0a",
"KB c #180f0a",
"LB c #1b1007",
"MB c #2e1d0d",
"NB c #382212",
"OB c #371d0e",
"PB c #673e25",
"QB c #996b55",
"RB c #937568",
"SB c #cfc0bd",
"TB c #97889c",
"UB c #8a5857",
"VB c #ff600a",
"WB c #ff5500",
"XB c #ff5901",
"YB c #dc5d29",
"ZB c #5b507c",
"aB c #4a4472",
"bB c #564e7d",
"cB c #a35a5d",
"dB c #ae544a",
"eB c #764f6c",
"fB c #1f1d30",
"gB c #232233",
"hB c #2e2a36",
"iB c #8e817e",
"jB c #d3b9a1",
"kB c #9a704f",
"lB c #6c4634",
"mB c #75574d",
"nB c #816547",
"oB c #523b1b",
"pB c #1e160a",
"qB c #1a1206",
"rB c #2d1f0c",
"sB c #452e18",
"tB c #4e2f1a",
"uB c #57331d",
"vB c #b28f6a",
"wB c #ab8d71",
"xB c #b79e92",
"yB c #a19099",
"zB c #9c90a0",
"0C c #614a60",
"1C c #885355",
"2C c #7f4f56",
"3C c #905e60",
"4C c #805b75",
"5C c #65588a",
"6C c #645582",
"7C c #624f76",
"8C c #46416d",
"9C c #614c75",
":C c #74557a",
";C c #1d1b2e",
"AC c #211e30",
"BC c #554644",
"CC c #ded4b3",
"DC c #efd6b4",
"EC c #9e7d62",
"FC c #755440",
"GC c #a78673",
"HC c #a07a5c",
"IC c #603c21",
"JC c #4e351f",
"KC c #4f341e",
"LC c #6a452e",
"MC c #8e6746",
"NC c #bfa27b",
"OC c #e3ca9b",
"PC c #cfb698",
"QC c #cebbc1",
"RC c #756784",
"SC c #7a6e85",
"TC c #604d66",
"UC c #6e4d5e",
"VC c #4f4365",
"WC c #403c63",
"XC c #4b4672",
"YC c #585285",
"ZC c #5c5790",
"aC c #7d536e",
"bC c #4b436d",
"cC c #994d5f",
"dC c #b94449",
"eC c #12121d",
"fC c #1c1b2c",
"gC c #211f33",
"hC c #1b1828",
"iC c #5a483a",
"jC c #fce0a2",
"kC c #fffad1",
"lC c #efd3b3",
"mC c #c0a08b",
"nC c #c2a08f",
"oC c #be977b",
"pC c #ad835f",
"qC c #9a7152",
"rC c #b59070",
"sC c #dec09b",
"tC c #fff1cb",
"uC c #f1dab7",
"vC c #b49a9a",
"wC c #9583a3",
"xC c #857594",
"yC c #564a6c",
"zC c #4a4369",
"0D c #7c4d5f",
"1D c #774f61",
"2D c #463f65",
"3D c #4c4875",
"4D c #524d7e",
"5D c #6d5886",
"6D c #675179",
"7D c #4d4876",
"8D c #7d566f",
"9D c #d3453a",
"9D8D7D6D5D4D3D2D1D0DzCyCxCwCvCuCtCsCrCqCpCoCnCmClCkCjCiChCgCfCeC",
"dCcCbCaCZCYCXCWCVCUCTCSCRCQCPCOCNCMCLCKCJCICHCGCFCECDCCCBCACgC;C",
":C9C8C7C6C5C4C3C2C1C0CzByBxBwBvBuBtBsBrBqBpBoBnBmBlBkBjBiBhBgBfB",
"eBdBcBbBaBZBYBXBWBVBUBTBSBRBQBPBOBNBMBLBKBJBIBHBGBFBEBDBCBBBAB;B",
":B9B8B7B6B5B4BWB3B2B1B0BzAyAxAwAvAuAtAsArAqApAoAnAmAlAkAjAiAhAgA",
"fAeAdAcAbAaAZAYAXAWAVAUATASARAQAPAOANAMALAKAJAIAHAGAFAEADACABAAA",
"KAKAKA;A:A9A8A7A6A5A4A3A2A1A0Az;y;x;w;v;u;t;s;r;q;p;o;n;m;l;k;j;",
"i;h;g;f;e;d;c;b;a;Z;Y;X;W;V;U;T;T;T;S;R;Q;P;O;N;M;L;K;J;I;H;G;F;",
"E;D;C;B;KAKAA;;;:;9;8;7;6;5;T;4;3;2;1;0;z:y:x:w:v:u:t:s:r:q:p:o:",
"n:m:l:k:KAj:i:h:g:f:e:d:c:T;T;T;T;b:a:Z:Y:X:W:V:U:T:S:R:Q:P:O:N:",
"M:L:K:J:I:KAKAH:G:F:E:D:C:T;B:A:;:::9:8:7:6:5:4:3:2:1:0:z9y9x9w9",
"T:v9u9t9s9r9q9p9o9n9m9l9k9j9i9h9g9f9e9d9c9b9a9Z9Y9X9W9V9U9T9S9R9",
"Q9P9O9N9M9L9K9J9I9H9G9F9T;E9D9C9B9A9;9:999KA897969594939291909z8",
"y8x8w8v8KAu8t8s8KAr8q8p8T;o8T;4;n8m8T;T;l8k8j8i8h8g8f8KAe8d8c8b8",
"a8Z8Y8X8W8V8U8T8S8R8Q8P8O8N8M8L8K8J8I8H8G8F8E8D8C8B8A8;8KA:89888",
"7868584838281808z7KAy7x7T;w7v7u7t7s7r7q7p7o7n7m7l7k7j7i7h7g7f7e7",
"d7c7b7a7Z7Y7X7W7V7U7KAT7S7R7Q7P7O7N7M7L7K7J7I7H7G7F7E7D7C7B7A7;7",
":797877767574737271707z6y6x6w6v6u6t6s6r6q6p6o6n6m6l6k6j6i6h6g6f6",
"e6d6c6b6a6Z6Y6X6W6V6U6T6S6R6Q6P6O6N6M6L6K6J6I6H6G6F6E6D6C6B6A6;6",
":696867666564636261606z5y5x5w5v5u5t5s5r5q5p5o5n5m5l5k5j5i5h5A6g5",
"f5e5d5c5b5a5Z5Y5X5W5V5U5T5S5R5Q5T;P5O5N5M5L5K5J5I5H5G5h5F5E5D5C5",
"B5A5;5:595857565554535251505z4y4x4w4v4u4t4s4r4q4p4o4n4m4l4k4j4i4",
"h4g4f4e4d4c4b4a4Z4Y4X4W4V4U4T4S4R4Q4M:P4O4N4M4L4K4J4I4H4G4F4E4D4",
"C4B4A4;4:494847464544434241404KAKAKAz3z3KAy3x3w3v3u3t3s3r3q3p3o3",
"n3m3l3k3j3i3h3g3f3e3d3c3b3a3Z3Y3KAX3W3V3U3T3S3R3Q3P3O3N3M3L3K3J3",
"I3H3G3F3E3D3T;C3B3A3;3:39383736353KAKA4333231303z2y2x2w2v2u2t2s2",
"r2q2p2o2n2m2l2k2j2T;i2h2g2f2e2d2c2b2KAKAa2Z2Y2X2W2V2U2T2S2R2Q2P2",
"O2N2M2L2K2T;J2I2H2G2F2E2D2C2B2A2;2:292KA827262524232221202z1y1x1",
"w1v1u1t1s1r1q1p1o1n1m1l1k1j1i1h1g1f1e1d1KAc1b1a1Z1Y1X1W1V1U1T1S1",
"R1Q1P1O1N1M1L1K1J1I1H1G1F1E1D1C1B1A1;1:191817161514131211101z0y0",
"x0w0v0u0t0s0r0q0p0o0n0m0l0k0j0i0h0g0f0e0d0c0b0a0Z0Y0X0W0V0U0T0S0",
"R0Q0P0O0T;N0M0L0K0J0I0H0G0F0E0D0C0B0A0;0:090807060504030201000U1"};
