/* XPM */
static char *image[] = {
"32 32 349 2",
"   c None",
"00 c #50534e",
"10 c #535755",
"20 c #595b58",
"30 c #737672",
"40 c #868985",
"50 c #656762",
"60 c #8d908b",
"70 c #595a58",
"80 c #646663",
"90 c #797c77",
":0 c #636462",
";0 c #6d6e6c",
"A0 c #a0a3a0",
"B0 c #9da09c",
"C0 c #9fa19e",
"D0 c #9a9d99",
"E0 c #9ea09d",
"F0 c #686967",
"G0 c #6f6f6e",
"H0 c #bcbebb",
"I0 c #abaca9",
"J0 c #8f918d",
"K0 c #888a87",
"L0 c #878986",
"M0 c #878885",
"N0 c #868784",
"O0 c #848782",
"P0 c #8e918d",
"Q0 c #b1b3b0",
"R0 c #b4b6b3",
"S0 c #6d706d",
"T0 c #6d706a",
"U0 c #b8bab7",
"V0 c #b0b2af",
"W0 c #848684",
"X0 c #dfe1de",
"Y0 c #dbdeda",
"Z0 c #dcdedb",
"a0 c #dde0dc",
"b0 c #dee0dd",
"c0 c #c6c8c5",
"d0 c #e0e1df",
"e0 c #e1e2df",
"f0 c #e0e3e0",
"g0 c #e1e3e1",
"h0 c #e2e4e0",
"i0 c #e2e5e1",
"j0 c #d4d6d3",
"k0 c #b6b8b5",
"l0 c #adaeac",
"m0 c #6f716d",
"n0 c #aeafac",
"o0 c #a2a3a0",
"p0 c #cdcfcc",
"q0 c #8a8c89",
"r0 c #666a69",
"s0 c #a4a6a3",
"t0 c #8b8d89",
"u0 c #acaeab",
"v0 c #a4a7a4",
"w0 c #a0a2a0",
"x0 c #a8a9a7",
"y0 c #dddfdb",
"z0 c #979a96",
"01 c #626664",
"11 c #34393a",
"21 c #444848",
"31 c #c8cac7",
"41 c #7d7f7c",
"51 c #adafac",
"61 c #9b9d9a",
"71 c #929491",
"81 c #7c7e7b",
"91 c #eff1ee",
":1 c #e9ebe8",
";1 c #abadaa",
"A1 c #767876",
"B1 c #4a4c4c",
"C1 c #434646",
"D1 c #656866",
"E1 c #9d9f9c",
"F1 c #e6e8e5",
"G1 c #f0f2ef",
"H1 c #dfe0dd",
"I1 c #8e908c",
"J1 c #838582",
"K1 c #a9aaa8",
"L1 c #818380",
"M1 c #d5d8d3",
"N1 c #e9ece8",
"O1 c #eaece9",
"P1 c #edeeeb",
"Q1 c #a3a4a0",
"R1 c #989a97",
"S1 c #646965",
"T1 c #575a58",
"U1 c #636663",
"V1 c #9c9e9a",
"W1 c #a5a7a3",
"X1 c #eef0ed",
"Y1 c #eef1ed",
"Z1 c #d1d3cf",
"a1 c #a7a9a6",
"b1 c #80817d",
"c1 c #757773",
"d1 c #a5a8a4",
"e1 c #828581",
"f1 c #c2c4c0",
"g1 c #e4e6e1",
"h1 c #e7e9e5",
"i1 c #f3f4f2",
"j1 c #ebedea",
"k1 c #7e817c",
"l1 c #5b5d5a",
"m1 c #5c5d5a",
"n1 c #eaebe9",
"o1 c #f1f2f0",
"p1 c #f4f6f3",
"q1 c #ebede9",
"r1 c #e9ebe7",
"s1 c #c0c2be",
"t1 c #848683",
"u1 c #a3a6a2",
"v1 c #686b66",
"w1 c #a2a4a1",
"x1 c #828481",
"y1 c #afb2ac",
"z1 c #dfe2dc",
"02 c #dee0db",
"12 c #7c7f7b",
"22 c #545855",
"32 c #535857",
"42 c #595d5c",
"52 c #535957",
"62 c #565957",
"72 c #7a7d7a",
"82 c #e0e3de",
"92 c #e3e5e0",
":2 c #e3e6e0",
";2 c #e3e6e1",
"A2 c #afb1ad",
"B2 c #838581",
"C2 c #9c9f9b",
"D2 c #6d6f6c",
"E2 c #646762",
"F2 c #9a9c98",
"G2 c #999c97",
"H2 c #d9dcd5",
"I2 c #d9ddd6",
"J2 c #daddd6",
"K2 c #4a504f",
"L2 c #5f6463",
"M2 c #696e6e",
"N2 c #666a6a",
"O2 c #5d6261",
"P2 c #515556",
"Q2 c #7d807c",
"R2 c #dde0d9",
"S2 c #dde0da",
"T2 c #dee1da",
"U2 c #dee1db",
"V2 c #9b9d98",
"W2 c #959894",
"X2 c #676a65",
"Y2 c #91938f",
"Z2 c #d4d7cf",
"a2 c #d4d7d0",
"b2 c #d4d8d0",
"c2 c #858885",
"d2 c #626866",
"e2 c #797f7d",
"f2 c #6a706e",
"g2 c #7e8181",
"h2 c #656867",
"i2 c #888c88",
"j2 c #d7dbd3",
"k2 c #d8dbd4",
"l2 c #d8dcd5",
"m2 c #8a8d88",
"n2 c #8e908d",
"o2 c #626460",
"p2 c #747772",
"q2 c #ced2c9",
"r2 c #ced2ca",
"s2 c #cfd3ca",
"t2 c #707471",
"u2 c #929692",
"v2 c #858a85",
"w2 c #868a86",
"x2 c #929693",
"y2 c #707570",
"z2 c #9a9e9a",
"03 c #d2d5cd",
"13 c #d2d6ce",
"23 c #d3d6ce",
"33 c #d3d7cf",
"43 c #7b7d79",
"53 c #888a86",
"63 c #7c7e7a",
"73 c #8a8c88",
"83 c #c6cac1",
"93 c #a0a59f",
":3 c #7f837e",
";3 c #aaaea8",
"A3 c #a0a49f",
"B3 c #aaaca9",
"C3 c #7b807b",
"D3 c #a8aca6",
"E3 c #6f726d",
"F3 c #878985",
"G3 c #7d807d",
"H3 c #70726e",
"I3 c #878a85",
"J3 c #737671",
"K3 c #b9bdb5",
"L3 c #b1b5ae",
"M3 c #8d918b",
"N3 c #888b86",
"O3 c #babfb7",
"P3 c #cdd1c8",
"Q3 c #c3c7bf",
"R3 c #71746f",
"S3 c #747572",
"T3 c #666a65",
"U3 c #848783",
"V3 c #72736e",
"W3 c #a7aba3",
"X3 c #8b8e89",
"Y3 c #858883",
"Z3 c #b0b3ac",
"a3 c #9c9f99",
"b3 c #727571",
"c3 c #81847f",
"d3 c #6a6d69",
"e3 c #60625e",
"f3 c #858783",
"g3 c #787b76",
"h3 c #767a74",
"i3 c #767974",
"j3 c #70746f",
"k3 c #91948e",
"l3 c #c1c4be",
"m3 c #babdb6",
"n3 c #c0c2bd",
"o3 c #8d908a",
"p3 c #70746e",
"q3 c #757772",
"r3 c #72746f",
"s3 c #777a75",
"t3 c #636661",
"u3 c #6a6d68",
"v3 c #868884",
"w3 c #7d807b",
"x3 c #959892",
"y3 c #c6c8c2",
"z3 c #bfc2bb",
"04 c #c4c6c0",
"14 c #91948f",
"24 c #7c7f7a",
"34 c #7f827d",
"44 c #7a7d78",
"54 c #5b5d59",
"64 c #636662",
"74 c #676965",
"84 c #939690",
"94 c #cbcdc8",
":4 c #c5c7c1",
";4 c #c9cbc5",
"A4 c #90938c",
"B4 c #666964",
"C4 c #686b67",
"D4 c #5d5e58",
"E4 c #9b9c97",
"F4 c #caccc7",
"G4 c #cdcfcb",
"H4 c #989a94",
"I4 c #9d9f9a",
"J4 c #d5d6d2",
"K4 c #d0d1cd",
"L4 c #d2d3d0",
"M4 c #9a9d97",
"N4 c #9da09b",
"O4 c #d9dbd7",
"P4 c #d5d7d2",
"Q4 c #d6d8d4",
"R4 c #9b9e97",
"S4 c #970202",
"T4 c #9e928e",
"U4 c #dfe0dc",
"V4 c #dbdcd8",
"W4 c #dcdcd9",
"X4 c #9c8a85",
"Y4 c #980000",
"Z4 c #970000",
"a4 c #9b0000",
"b4 c #a20606",
"c4 c #a50808",
"d4 c #a90808",
"e4 c #a80909",
"f4 c #a08b86",
"g4 c #e4e5e1",
"h4 c #e1e2de",
"i4 c #e1e1de",
"j4 c #a0807c",
"k4 c #a80808",
"l4 c #a70808",
"m4 c #a60909",
"n4 c #a50707",
"o4 c #b41b1b",
"p4 c #ca1313",
"q4 c #c50303",
"r4 c #a68b86",
"s4 c #e9eae7",
"t4 c #e6e7e4",
"u4 c #e4e5e3",
"v4 c #a7807b",
"w4 c #c60202",
"x4 c #cc1717",
"y4 c #ae1717",
"z4 c #c62b2b",
"05 c #ef2b2b",
"15 c #eb0f0f",
"25 c #ac8d89",
"35 c #eeeeec",
"45 c #ececea",
"55 c #eaeae8",
"65 c #af837f",
"75 c #ec0e0e",
"85 c #ec0c0c",
"95 c #ef3131",
":5 c #c02626",
";5 c #bd3838",
"A5 c #c94f4f",
"B5 c #ce4f4f",
"C5 c #a08e8a",
"D5 c #dcddda",
"E5 c #dadbd8",
"F5 c #d8dad6",
"G5 c #a38b86",
"H5 c #cf4f4f",
"I5 c #d04f4f",
"J5 c #c84d4d",
"K5 c #b93030",
"L5 c #9b5b57",
"M5 c #9a918d",
"N5 c #9e9a95",
"O5 c #9b928e",
"P5 c #9d4745",
"                          P5O5N5N5M5L5                          ",
"            K5J5I5H5H5H5H5G5F5E5E5D5C5B5H5H5H5I5A5;5            ",
"          :59585757575757565554545352515757575758505z4          ",
"          y4x4w4w4w4w4w4w4v4u4t4t4s4r4q4w4w4w4w4w4p4o4          ",
"            n4m4l4k4k4k4k4j4i4h4h4g4f4e4k4k4k4d4c4b4a4          ",
"                Z4Y4Y4Y4Y4X4W4V4V4U4T4S4Y4Y4Y4Y4                ",
"                          R4Q4P4P4O4N4                          ",
"                          M4L4K4K4J4I4                          ",
"                          H4G4F4F4K4E4                          ",
"          D4C4B4B4B4B4B4B4A4;4:4:49484B4B4B4B4B47464            ",
"        5444343424242424241404z3z3y3x324242424w334v3u3          ",
"        t334s3r3q3p3p3p3p3o3n3m3m3l3k3j3j3j3j3i3h3g3f3e3        ",
"        d3c3b3a3Z3Z3Z3Z3Z3Y3n3m3m3l3X3W3Z3Z3Z3Z3M4V3U3T3        ",
"        S3U3R3Q3P3P3P3P3O3N3n3m3m3l3M3L3P3P3P3P3K3J3I3H3        ",
"        G3F3E3P3P3P3P3P3D3C3B3A3A3;3:393P3P3P3P383r37363        ",
"        53v3433323131303z2y2x2w2v2u2t2u2s2s2r2q2q2p273v3        ",
"      o2n2Y3m2l2k2k2k2j2i2h2g2f2f2e2d2c2b2b2a2Z233Y353Y2e3      ",
"      X2W2U3V2U2T2S2S2R2Q2P2O2N2M2L2K2G3J2J2I2H2H2G2U3F2E2      ",
"      D2C2B2A2;2;2:29282726252424232221202z1z1z1U2y1x1w1v1      ",
"      R3u1t1s1r1q1p1o1n12454m1l1l1m154k1j1o1i1h1g1f1e1d1c1      ",
"      b1a1f3Z1Y1X1o1W1V1U1T1T1T1T1T1T1S1R1Q1P1O1N1M1L1K1J1      ",
"      I1B3x1H1G1G1G1F1E1D1C1C1C1C1C1B1A1;1:1919191O181;171      ",
"      615141j1G1G1G1G1G131c221111101z0y0G1G1G1G1G1G1v3x0w0      ",
"      v0u0t0G1G1G1G1G1G1G1:1s0r0q0p0G1G1G1G1G1G1G1G1o0w0n0B4    ",
"    m0l0k0B2j0i0i0h0g0f0e0e0d0c0H1H1b0a0a0y0Z0Z0Y0X0W0V0U0T0    ",
"    S0R0k0Q0P0O0t1f3f3N0N0v3v3M0M0L0L0F3L0K0K0K0K0J0I0k0H0G0    ",
"    F0E0W2D0C0V0V0V0V0V0V0V0V0V0V0V0V0V0V0V0V0V0V0V0V0B0A0;0    ",
"    :0Y3g3g390k1k1k1k1k1k1k1k1k1k1k1k1k1k1k1k1k1k1k1k144I380    ",
"    706090g3g3g3g3g3g3g3g3g3g3g3g3g3g3g3g3g3g3g3g3g3g3g3X380    ",
"      5040L0L0L0L0L0L0L0L0L0L0L0L0L0L0L0L0L0L0L0L0L0L0F33020    ",
"        10101010101010101010101010101010101010101010101000      ",
"                                                                "};
